<svg width="24" height="24" viewBox="0 0 24 24" fill="none" xmlns="http://www.w3.org/2000/svg">
<path d="M4.2499 20.25C4.2499 20.6642 4.58569 21 4.9999 21C5.41412 21 5.7499 20.6642 5.7499 20.25V16.8546C6.48291 16.558 7 15.8394 7 15C7 14.1606 6.48291 13.442 5.7499 13.1453L5.7499 3.75C5.7499 3.33579 5.41412 3 4.9999 3C4.58569 3 4.2499 3.33579 4.2499 3.75L4.2499 13.1454C4.48153 13.0516 4.73473 13 4.99999 13C5.02304 13 5.046 13.0004 5.06887 13.0011C5.06601 13.001 5.06315 13.001 5.06029 13.0009C5.04027 13.0003 5.02016 13 4.99999 13C3.89542 13 3 13.8954 3 15C3 15.8393 3.517 16.5579 4.2499 16.8546L4.2499 20.25Z" fill="black"/>
<path fill-rule="evenodd" clip-rule="evenodd" d="M18.2499 20.25C18.2499 20.6642 18.5857 21 18.9999 21C19.4141 21 19.7499 20.6642 19.7499 20.25V16.8546C20.4829 16.558 21 15.8394 21 15C21 14.1606 20.4829 13.442 19.7499 13.1453V3.75C19.7499 3.33579 19.4141 3 18.9999 3C18.5857 3 18.2499 3.33579 18.2499 3.75V13.1454C17.517 13.4421 17 14.1607 17 15C17 15.8393 17.517 16.5579 18.2499 16.8546V20.25Z" fill="black"/>
<path d="M11.9999 3C11.5857 3 11.2499 3.33579 11.2499 3.75001V7.14541C10.517 7.44213 10 8.16068 10 8.99999C10 10.1046 10.8954 11 12 11C11.7347 11 11.4815 10.9484 11.2499 10.8546V20.25C11.2499 20.6642 11.5857 21 11.9999 21C12.4141 21 12.7499 20.6642 12.7499 20.25L12.7499 10.8547C13.4829 10.558 14 9.83937 14 8.99999C14 8.16061 13.4829 7.442 12.7499 7.14533V3.75C12.7499 3.33579 12.4141 3 11.9999 3Z" fill="black"/>
</svg>
