<svg width="24" height="24" viewBox="0 0 24 24" fill="none" xmlns="http://www.w3.org/2000/svg">
<path fill-rule="evenodd" clip-rule="evenodd" d="M7.00195 3C4.79281 3 3.00195 4.79086 3.00195 7V17C3.00195 19.2091 4.79281 21 7.00195 21H17.002C19.2111 21 21.002 19.2091 21.002 17V7C21.002 4.79086 19.2111 3 17.002 3H7.00195ZM11.2519 15.75C11.2519 16.1642 11.5876 16.5 12.0019 16.5C12.4161 16.5 12.7519 16.1642 12.7519 15.75V12.75H15.7519C16.1661 12.75 16.5019 12.4142 16.5019 12C16.5019 11.5858 16.1661 11.25 15.7519 11.25H12.7519V8.25C12.7519 7.83579 12.4161 7.5 12.0019 7.5C11.5876 7.5 11.2519 7.83579 11.2519 8.25V11.25H8.25186C7.83764 11.25 7.50186 11.5858 7.50186 12C7.50186 12.4142 7.83764 12.75 8.25186 12.75H11.2519V15.75Z" fill="black"/>
</svg>
