<svg width="24" height="24" viewBox="0 0 24 24" fill="none" xmlns="http://www.w3.org/2000/svg">
<path d="M3.00098 11.8284C3.00098 11.2979 3.21169 10.7892 3.58676 10.4142L10.5868 3.41416C11.3678 2.63311 12.6341 2.63311 13.4152 3.41416L20.4152 10.4142C20.7903 10.7892 21.001 11.2979 21.001 11.8284V20C21.001 20.5522 20.5533 21 20.001 21H15.001C14.4487 21 14.001 20.5522 14.001 20V16C14.001 15.4477 13.5533 15 13.001 15H11.001C10.4487 15 10.001 15.4477 10.001 16V20C10.001 20.5522 9.55326 21 9.00098 21H4.00098C3.44869 21 3.00098 20.5522 3.00098 20V11.8284Z" fill="black"/>
</svg>
