<svg width="24" height="24" viewBox="0 0 24 24" fill="none" xmlns="http://www.w3.org/2000/svg">
<path d="M7.5 7C7.5 7.27614 7.72386 7.5 8 7.5H14C14.2761 7.5 14.5 7.27614 14.5 7V3H7.5V7Z" fill="black"/>
<path d="M3 5C3 3.89543 3.89543 3 5 3H6V7C6 8.10457 6.89543 9 8 9H14C15.1046 9 16 8.10457 16 7V3.17964C16.216 3.27792 16.4148 3.41477 16.5858 3.58579L20.4142 7.41421C20.7893 7.78929 21 8.298 21 8.82843V19C21 20.1046 20.1046 21 19 21H18V16C18 14.8954 17.1046 14 16 14H8C6.89543 14 6 14.8954 6 16V21H5C3.89543 21 3 20.1046 3 19V5Z" fill="black"/>
<path d="M8 15.5C7.72386 15.5 7.5 15.7239 7.5 16V21H16.5V16C16.5 15.7239 16.2761 15.5 16 15.5H8Z" fill="black"/>
</svg>
