<svg width="24" height="24" viewBox="0 0 24 24" fill="none" xmlns="http://www.w3.org/2000/svg">
<path d="M5.75 1C6.16421 1 6.5 1.33579 6.5 1.75V17C6.5 17.2761 6.72386 17.5 7 17.5H22.25C22.6642 17.5 23 17.8358 23 18.25C23 18.6642 22.6642 19 22.25 19H19V22.25C19 22.6642 18.6642 23 18.25 23C17.8358 23 17.5 22.6642 17.5 22.25V19H7C5.89543 19 5 18.1046 5 17V6.5H1.75C1.33579 6.5 1 6.16421 1 5.75C1 5.33579 1.33579 5 1.75 5H5V1.75C5 1.33579 5.33579 1 5.75 1Z" fill="black"/>
<path d="M19 15.25C19 15.6642 18.6642 16 18.25 16C17.8358 16 17.5 15.6642 17.5 15.25V7C17.5 6.72386 17.2761 6.5 17 6.5H8.75C8.33579 6.5 8 6.16421 8 5.75C8 5.33579 8.33579 5 8.75 5H17C18.1046 5 19 5.89543 19 7V15.25Z" fill="black"/>
</svg>
