<svg width="24" height="24" viewBox="0 0 24 24" fill="none" xmlns="http://www.w3.org/2000/svg">
<path d="M10.7881 16.3265C11.5041 16.8721 12.4963 16.8721 13.2123 16.3265L20.4122 10.8409C21.4627 10.0405 21.4627 8.4596 20.4122 7.65918L13.2123 2.17354C12.4963 1.62803 11.5041 1.62803 10.7881 2.17354L3.58819 7.65918C2.53764 8.4596 2.53764 10.0405 3.58819 10.8409L10.7881 16.3265Z" fill="black"/>
<path d="M11.6669 20.6211C11.7315 20.6703 11.8044 20.7034 11.8801 20.7203C11.9589 20.7398 12.0415 20.7398 12.1203 20.7203C12.196 20.7034 12.2688 20.6703 12.3335 20.6211L20.3233 14.5336C20.5896 14.3307 20.9586 14.3308 21.2248 14.5338C21.615 14.8314 21.615 15.4187 21.2248 15.7163L13.2129 21.8254C12.4966 22.3715 11.5037 22.3715 10.7875 21.8254L2.77561 15.7163C2.38534 15.4187 2.38534 14.8314 2.77561 14.5338C3.04179 14.3308 3.41079 14.3307 3.67705 14.5336L11.6669 20.6211Z" fill="black"/>
</svg>
