<svg width="24" height="24" viewBox="0 0 24 24" fill="none" xmlns="http://www.w3.org/2000/svg">
<path d="M9 10C8.16062 10 7.44202 9.48292 7.14535 8.74992H3.75003C3.33582 8.74992 3.00003 8.41413 3.00003 7.99992C3.00003 7.5857 3.33582 7.24991 3.75003 7.24991H7.14541C7.44213 6.517 8.16069 6 9 6C10.1046 6 11 6.89543 11 8C11 9.10457 10.1046 10 9 10Z" fill="black"/>
<path d="M11 8C11 7.73474 10.9484 7.48155 10.8546 7.24991H20.25C20.6642 7.24991 21 7.5857 21 7.99992C21 8.41413 20.6642 8.74992 20.25 8.74992H10.8547C10.9484 8.51833 11 8.26519 11 8Z" fill="black"/>
<path d="M15 18C13.8954 18 13 17.1046 13 16C13 14.8954 13.8954 14 15 14C15.8393 14 16.5579 14.517 16.8546 15.2499H20.25C20.6642 15.2499 21 15.5857 21 15.9999C21 16.4141 20.6642 16.7499 20.25 16.7499H16.8547C16.558 17.4829 15.8394 18 15 18Z" fill="black"/>
<path d="M13.1454 15.2499C13.0516 15.4815 13 15.7347 13 16C13 16.2652 13.0516 16.5183 13.1453 16.7499L3.75 16.7499C3.33579 16.7499 3 16.4141 3 15.9999C3 15.5857 3.33579 15.2499 3.75 15.2499L13.1454 15.2499Z" fill="black"/>
</svg>
